<svg width="329" height="183" viewBox="0 0 329 183" fill="none" xmlns="http://www.w3.org/2000/svg">
<path d="M327.044 146.864C321.636 166.087 304.897 180.564 284.491 182.633C284.166 164.726 275.125 148.948 261.432 139.362C275.642 125.135 284.777 105.837 285.886 84.4158C310.149 87.5728 328.888 108.32 328.888 133.444C328.888 136.254 328.653 139.01 328.203 141.693C321.887 145.386 314.688 147.733 307 148.342C305.68 148.446 304.346 148.5 303 148.5V152.5C311.639 152.5 319.804 150.471 327.044 146.864Z" fill="#2E4AF3"/>
<path d="M163.901 84.119C162.861 105.659 153.708 125.07 139.432 139.362C153.18 148.986 162.238 164.851 162.494 182.846C179.07 182.17 193.542 173.333 202 160.246V160L202.158 160C204.673 156.057 206.645 151.733 207.968 147.134C207.906 147.237 207.845 147.34 207.783 147.442C200.607 150.968 192.535 152.948 184 152.948V148.948C185.346 148.948 186.68 148.895 188 148.79C195.653 148.185 202.821 145.856 209.116 142.192C209.623 139.352 209.888 136.429 209.888 133.444C209.888 107.299 189.595 85.8936 163.901 84.119Z" fill="#2E4AF3"/>
<path d="M180.492 183C190.165 179.083 198.43 172.416 204.318 163.969C225.15 163.404 244.089 155.255 258.474 142.183C270.726 150.469 279.108 164.044 280.342 179.631C280.43 180.744 280.482 181.868 280.496 183L180.492 183Z" fill="#2E4AF3"/>
<path d="M158.496 183C158.482 181.868 158.43 180.744 158.342 179.631C157.108 164.044 148.726 150.469 136.474 142.183C121.558 155.739 101.744 164 80 164V160C124.183 160 160 124.183 160 80C160 35.8172 124.183 7.62939e-06 80 0H0V183H158.496Z" fill="#2E4AF3"/>
<path d="M105.687 0L202 0C246.183 7.62939e-06 282 35.8172 282 80C282 103.403 271.951 124.459 255.932 139.089C242.839 151.045 225.759 158.709 206.918 159.851C211.354 152.062 213.888 143.049 213.888 133.444C213.888 105.123 191.858 81.9466 164 80.1164L164 80C164 42.5671 139.515 10.8529 105.687 0Z" fill="#2E4AF3"/>
</svg>
